<?xml version="1.0" encoding="UTF-8"?>
<svg width="692px" height="707px" viewBox="0 0 692 707" version="1.1" xmlns="http://www.w3.org/2000/svg" xmlns:xlink="http://www.w3.org/1999/xlink">
    <title>layer 1</title>
    <g id="Template---App-Icons" stroke="none" stroke-width="1" fill="none" fill-rule="evenodd">
        <path d="M135.824611,-7.73756182e-05 L207.337051,135.402462 L436.387104,153.328323 L461.06866,39.1364843 L502.646223,23.4570576 L577.050805,164.336706 L662.81228,171.048214 L663.666096,313.654025 L690.504285,318.456918 L691.320328,565.884685 L665.253281,583.983733 L665.663084,647.132623 L575.862732,706.999525 L0.000152055397,654.972337 L0.000152055397,171.048214 L68.0823608,136.734501 L94.2470477,15.6793493 L135.824611,-7.73756182e-05 Z M74.1210781,254.003784 L74.1210781,585.409848 L501.741806,624.043955 L501.741806,292.637891 L74.1210781,254.003784 Z M408.749026,349.050058 C433.22807,349.050058 453.101498,370.390732 453.101498,396.677475 L453.101498,512.131897 C453.101498,538.41864 433.22807,559.759315 408.749026,559.759315 C384.269981,559.759315 364.396554,538.41864 364.396554,512.131897 L364.396554,396.677475 C364.396554,370.390732 384.269981,349.050058 408.749026,349.050058 Z M150.880178,324.565673 C175.359223,324.565673 195.23265,345.945484 195.23265,372.280348 L195.23265,481.826255 C195.23265,508.161119 175.359223,529.540929 150.880178,529.540929 C126.401134,529.540929 106.527706,508.161119 106.527706,481.826255 L106.527706,372.280348 C106.527706,345.945484 126.401134,324.565673 150.880178,324.565673 Z M475.112437,93.6488619 L455.111903,195.648521 L526.111903,201.648753 L475.112437,93.6488619 Z M117.096249,69.0043667 L97.0964271,171.004026 L170.096274,176.004338 L117.096249,69.0043667 Z" id="layer-1" fill="color(display-p3 0.937 0.492 0.330)" fill-rule="nonzero"></path>
    </g>
</svg>